<svg xmlns="http://www.w3.org/2000/svg" width="512" height="64" viewBox="0, 0, 160, 20"><path fill="none" d="M0 0h160v20H0z"/><path d="M50.68 13.581h-1.759L56.661 20h-5.597l-11.505-9.913 10.865.016a3.217 3.217 0 0 0 3.23-3.21 3.216 3.216 0 0 0-3.23-3.209H37.672V20h-3.853V.19H50.68c3.742 0 6.781 3.004 6.781 6.703 0 3.7-3.039 6.688-6.781 6.688zm-40.32 2.925c-3.583 0-6.487-2.862-6.487-6.403 0-3.542 2.904-6.419 6.487-6.419h11.13c3.584 0 6.487 2.877 6.487 6.419 0 3.541-2.903 6.403-6.487 6.403H10.36zM21.749 20c5.534 0 10.02-4.427 10.02-9.897 0-5.471-4.486-9.913-10.02-9.913H10.102C4.662.462.961 3.678.133 9.09c-.194 1.267.027 2.767.399 3.957 1.305 4.179 5.261 6.874 9.57 6.953zM158.376.236q.434 0 .832.216.398.216.625.621.228.404.228.846 0 .439-.223.838-.223.399-.623.622-.399.223-.839.223-.439 0-.839-.223-.399-.223-.622-.622-.223-.399-.223-.838 0-.442.227-.846.228-.405.626-.621.398-.216.831-.216zm.003.329q-.348 0-.667.174-.319.173-.502.499-.184.325-.184.681 0 .353.179.674.18.321.501.501t.673.18q.354 0 .674-.18.32-.18.5-.501t.18-.674q0-.356-.183-.681-.184-.326-.504-.499-.32-.174-.667-.174zm-.763 2.255V1.033h.362q.511 0 .572.005.181.015.281.071.1.056.167.171.067.116.067.256 0 .194-.127.331-.126.137-.355.17.082.031.126.067.044.037.12.138.02.026.132.217l.212.361h-.449l-.15-.29q-.151-.293-.25-.369-.099-.075-.251-.075h-.095v.734zm.362-1.016h.148q.314 0 .39-.024.076-.024.12-.084.044-.061.044-.138 0-.074-.043-.133-.043-.058-.122-.083t-.389-.025h-.148zm-16.173 14.702h13.898L153.432 20h-11.883c-5.533 0-10.027-4.427-10.027-9.897 0-5.471 4.494-9.913 10.027-9.913h13.85l-2.287 3.494h-11.307c-2.958 0-5.469 1.976-6.237 4.664h18.743l-2.271 3.494h-16.472c.768 2.703 3.279 4.664 6.237 4.664M94.675 20h11.882l2.272-3.494H94.931c-3.582 0-6.493-2.862-6.493-6.403 0-3.542 2.911-6.419 6.493-6.419h11.323L108.509.19H94.675c-5.533 0-10.027 4.442-10.027 9.913 0 5.47 4.494 9.897 10.027 9.897zm19.767-3.494h17.96L130.131 20h-17.576c-.544 0-1.04-.206-1.407-.569a1.857 1.857 0 0 1-.56-1.328V.19h3.854v16.316zm-47.178-3.494l2.271 3.494h10.411L82.089 20h4.542L74.445 1.186C73.933.443 73.053 0 72.11 0c-.976 0-1.855.458-2.383 1.217L57.589 20h4.541l9.98-15.636 5.437 8.648H67.264z" fill="#EC322B"/></svg>